<?xml version="1.0" encoding="utf-8"?>
<!-- Generator: Adobe Illustrator 19.0.0, SVG Export Plug-In . SVG Version: 6.00 Build 0)  -->
<svg version="1.1" id="Layer_1" xmlns="http://www.w3.org/2000/svg" xmlns:xlink="http://www.w3.org/1999/xlink" x="0px" y="0px"
	 viewBox="0 0 500 500" style="enable-background:new 0 0 500 500;" xml:space="preserve">
<style type="text/css">
	.st0{fill:#FDF000;}
	.st1{fill:#046FBB;}
</style>
<g id="XMLID_1_">
	<path id="XMLID_5_" d="M67.8,160.6c-0.5-9.8,7.6-19.7,17.8-19.5c109.4-0.1,218.8-0.1,328.2,0c13-0.4,20.2,14,18.5,25.6v121.9
		c-23.2,23.7-46.8,47-70.4,70.4c-92.1-0.2-184.2,0-276.3-0.1c-11.8,0.3-19.4-12.2-17.8-23C67.8,277.4,67.7,219,67.8,160.6
		 M72.4,162.2c0,59.1,0,118.2,0,177.3c-0.1,7.8,6.6,15.4,14.7,14.7c90.9,0,181.7,0,272.6,0c22.5-22.5,45.1-44.8,67.5-67.5
		c-0.2-42.1,0-84.2-0.1-126.3c0.1-7.8-6.7-15.3-14.8-14.6c-108.4,0.1-216.9,0-325.3,0C78.2,145.2,71.7,153.9,72.4,162.2z"/>
	<path id="XMLID_8_" d="M207.5,203.3c6.2,0.1,12.3,0,18.5,0.1c-4.9,29.3-9.7,58.6-14.7,87.9c-5.9,0-11.7,0-17.6,0
		c0.6-3.2,1.2-6.3,1.8-9.5c-3.6,3.6-7,7.8-12,9.6c-7.6,2.8-17.7,1.4-22.3-5.9c-5.2-8.4-4.3-18.9-2.7-28.2c2.2-11,6.8-22.8,16.9-28.7
		c8.6-5,21.8-5.1,27.3,4.6C204.1,223.2,205.8,213.2,207.5,203.3 M188.2,239.6c-5.9,3.1-7.9,10.2-9.4,16.2c-1.2,6.7-3,14.4,0.7,20.7
		c5.2,5.9,14.3,0.6,16.2-5.8c2.2-7.9,3.8-16.2,3.9-24.4C199.9,240.5,193.2,236.4,188.2,239.6z"/>
	<path id="XMLID_11_" d="M244.3,230c11.6-6.7,28.8-6.9,37.8,4.1c6.4,7.9,5.9,18.7,4.4,28.2c-14,0-28,0-41.9,0
		c-1.4,5.8-1,13.8,5.6,16c7.5,2.9,14.8-2.6,17.6-9.4c5.7,0.4,11.4,0.7,17.1,1c-4.5,9.1-11.4,17.8-21.5,20.9
		c-9.3,2.8-20.1,2.7-28.5-2.6c-6.7-4.3-10.3-12.1-10.5-19.9C223.9,253.4,231,237.6,244.3,230 M255.2,239c-4.9,2-6.8,7.4-8.7,11.9
		c7.7,0.1,15.4,0.1,23.1-0.1c-0.4-3.7,0.2-8.1-2.7-10.9C263.9,236.9,258.9,237.7,255.2,239z"/>
	<path id="XMLID_14_" d="M310.6,230.7c10.6-5.8,23.6-6.8,35.1-3.5c6,1.7,11.6,6.9,10.9,13.7c-1.2,16.9-6.2,33.4-7.1,50.4
		c-6.1,0-12.3,0-18.4,0c0.2-3.2,0.5-6.3,0.9-9.5c-4.7,4.5-9.9,9.4-16.6,10.4c-7.8,1.4-18,0.2-22-7.7c-4-9.2,0.9-20.4,8.9-25.7
		c10-6.7,22.5-6.8,34.1-7.8c0.4-4.2,2-10.4-3.1-12.3c-7.2-2.9-15,1.7-17.5,8.7c-5.7-0.6-11.4-1.2-17.2-1.8
		C301.2,239.5,304.7,233.7,310.6,230.7 M313,271.9c-1.8,4.8,3,9.9,7.9,8.6c9.5-1.3,13.4-11.7,13.9-20.1
		C326.9,261.7,315.1,262.3,313,271.9z"/>
	<path id="XMLID_21_" class="st0" d="M72.4,162.2c-0.7-8.2,5.8-17,14.5-16.4c108.4,0,216.9,0.1,325.3,0c8.1-0.7,14.9,6.8,14.8,14.6
		c0.2,42.1-0.1,84.2,0.1,126.3c-22.3,22.7-45,45-67.5,67.5c-90.9,0-181.7,0-272.6,0c-8,0.7-14.8-6.9-14.7-14.7
		C72.4,280.4,72.4,221.3,72.4,162.2 M139.4,203.2c-3.4,19.7-6.6,39.5-9.9,59.2c6.3,0,12.6,0,19,0c3.4-19.7,6.6-39.4,9.8-59.1
		C152,203.3,145.7,203.4,139.4,203.2 M207.5,203.3c-1.7,9.9-3.4,19.9-4.8,29.9c-5.4-9.6-18.7-9.6-27.3-4.6
		c-10.1,5.9-14.7,17.7-16.9,28.7c-1.6,9.3-2.5,19.8,2.7,28.2c4.6,7.3,14.6,8.7,22.3,5.9c4.9-1.8,8.4-6,12-9.6
		c-0.6,3.2-1.2,6.3-1.8,9.5c5.9,0,11.8,0,17.6,0c5-29.3,9.7-58.6,14.7-87.9C219.8,203.3,213.6,203.3,207.5,203.3 M244.3,230
		c-13.3,7.6-20.4,23.4-19.9,38.4c0.2,7.8,3.8,15.6,10.5,19.9c8.4,5.3,19.2,5.4,28.5,2.6c10-3.1,16.9-11.8,21.5-20.9
		c-5.7-0.3-11.4-0.6-17.1-1c-2.8,6.8-10.1,12.3-17.6,9.4c-6.7-2.2-7-10.3-5.6-16c14,0,28,0,41.9,0c1.5-9.5,2-20.3-4.4-28.2
		C273.1,223.1,256,223.3,244.3,230 M310.6,230.7c-6,3-9.4,8.9-11.8,14.9c5.7,0.6,11.4,1.2,17.2,1.8c2.5-7,10.3-11.6,17.5-8.7
		c5.1,2,3.5,8.2,3.1,12.3c-11.6,1-24.1,1.1-34.1,7.8c-8.1,5.3-13,16.6-8.9,25.7c4,7.9,14.1,9.1,22,7.7c6.8-1,11.9-5.9,16.6-10.4
		c-0.4,3.2-0.7,6.3-0.9,9.5c6.1,0,12.3,0,18.4,0c0.9-17,5.9-33.5,7.1-50.4c0.7-6.7-4.9-12-10.9-13.7
		C334.3,223.8,321.2,224.9,310.6,230.7 M128,272.4c-1.1,6.3-2.2,12.6-3.2,19c6.3-0.1,12.6-0.1,18.8,0c1.2-6.3,2.2-12.6,3.4-18.9
		C140.6,272.4,134.3,272.4,128,272.4z"/>
	<path id="XMLID_22_" class="st0" d="M255.2,239c3.7-1.3,8.7-2.1,11.8,0.9c2.9,2.8,2.3,7.2,2.7,10.9c-7.7,0.2-15.4,0.2-23.1,0.1
		C248.4,246.4,250.3,241,255.2,239z"/>
	<path id="XMLID_23_" class="st0" d="M188.2,239.6c5-3.2,11.7,0.8,11.3,6.7c0,8.2-1.7,16.5-3.9,24.4c-1.9,6.4-11,11.7-16.2,5.8
		c-3.7-6.3-1.9-14-0.7-20.7C180.3,249.8,182.3,242.8,188.2,239.6z"/>
	<path id="XMLID_24_" class="st0" d="M313,271.9c2.2-9.6,14-10.2,21.9-11.6c-0.5,8.4-4.4,18.8-13.9,20.1
		C316,281.8,311.2,276.8,313,271.9z"/>
	<path id="XMLID_25_" class="st1" d="M139.4,203.2c6.3,0.1,12.6,0.1,18.9,0.1c-3.3,19.7-6.4,39.4-9.8,59.1c-6.3-0.1-12.7-0.1-19,0
		C132.8,242.7,136,222.9,139.4,203.2z"/>
	<path id="XMLID_26_" class="st1" d="M128,272.4c6.3,0,12.7,0,19,0.1c-1.2,6.3-2.2,12.6-3.4,18.9c-6.3-0.1-12.5-0.1-18.8,0
		C125.8,285,126.9,278.7,128,272.4z"/>
</g>
</svg>
