<?xml version="1.0" encoding="UTF-8" standalone="no"?>
<svg
   xmlns:dc="http://purl.org/dc/elements/1.1/"
   xmlns:cc="http://creativecommons.org/ns#"
   xmlns:rdf="http://www.w3.org/1999/02/22-rdf-syntax-ns#"
   xmlns:svg="http://www.w3.org/2000/svg"
   xmlns="http://www.w3.org/2000/svg"
   viewBox="0 0 93.75 72.5"
   xml:space="preserve"
   version="1.1"
   id="svg2"><metadata
     id="metadata8"><rdf:RDF><cc:Work
         rdf:about=""><dc:format>image/svg+xml</dc:format><dc:type
           rdf:resource="http://purl.org/dc/dcmitype/StillImage" /></cc:Work></rdf:RDF></metadata><defs
     id="defs6" /><g
     transform="matrix(1.25,0,0,-1.25,0,72.5)"
     id="g10"><g
       transform="scale(0.1,0.1)"
       id="g12"><path
         id="path14"
         style="fill:#ee2736;fill-opacity:1;fill-rule:evenodd;stroke:none"
         d="m 373.105,481.844 c 105.915,0 191.774,-85.864 191.774,-191.774 0,-105.91 -85.859,-191.7731 -191.774,-191.7731 -105.91,0 -191.769,85.8631 -191.769,191.7731 0,105.91 85.859,191.774 191.769,191.774" /><path
         id="path16"
         style="fill:#ffffff;fill-opacity:1;fill-rule:evenodd;stroke:none"
         d="m 281.664,355.656 c 1.465,20.43 41.195,24.469 45.977,0 l 0,-76.461 c 0,-97.922 -156.075,-54.754 -92.797,-4.5 14.808,-20.543 43.23,-19.175 46.258,1.102 l 0.562,79.859 z m 176.992,-15.379 c 33.735,0 61.071,-26.656 61.071,-59.547 0,-32.894 -27.336,-59.55 -61.071,-59.55 -33.722,0 -61.082,26.656 -61.082,59.55 0,32.891 27.36,59.547 61.082,59.547 z m 0,-34.234 c 13.242,0 23.957,-11.344 23.957,-25.313 0,-13.984 -10.715,-25.312 -23.957,-25.312 -13.226,0 -23.945,11.328 -23.945,25.312 0,13.969 10.719,25.313 23.945,25.313 z m -99.519,83.965 8.625,0 c 9.949,0 18.09,-8.156 18.09,-18.094 l 0,-4.457 c 0,-9.937 -8.161,-18.09 -18.09,-18.09 l -8.625,0 c -9.961,0 -18.11,8.141 -18.11,18.09 l 0,4.457 c 0,9.949 8.149,18.094 18.11,18.094 z m 0.312,-52.461 7.985,0 c 10.121,0 18.418,-8.289 18.418,-18.399 l 0,-77.136 c 0,-10.121 -8.297,-18.422 -18.418,-18.422 l -7.985,0 c -10.129,0 -18.422,8.301 -18.422,18.422 l 0,77.136 c 0,10.11 8.293,18.399 18.422,18.399" /></g></g></svg>